<?xml version="1.0" standalone="no"?>
<!DOCTYPE svg PUBLIC "-//W3C//DTD SVG 20010904//EN"
 "http://www.w3.org/TR/2001/REC-SVG-20010904/DTD/svg10.dtd">
<svg version="1.0" xmlns="http://www.w3.org/2000/svg"
 width="1024.000000pt" height="1024.000000pt" viewBox="0 0 1024.000000 1024.000000"
 preserveAspectRatio="xMidYMid meet">

<g transform="translate(0.000000,1024.000000) scale(0.100000,-0.100000)"
fill="#000000" stroke="none">
<path d="M5081 8679 c-150 -19 -404 -128 -614 -262 -31 -20 -59 -37 -62 -37
-3 0 -29 -15 -58 -34 -173 -111 -479 -294 -607 -364 -160 -86 -165 -89 -305
-181 -164 -106 -409 -326 -538 -482 -105 -128 -259 -385 -309 -516 -4 -13 -12
-33 -17 -45 -13 -32 -31 -87 -41 -123 -31 -115 -40 -151 -56 -235 -25 -132
-25 -426 0 -565 10 -55 25 -125 33 -155 8 -30 18 -68 23 -85 27 -103 117 -307
177 -403 18 -29 33 -55 33 -58 0 -15 117 -169 203 -269 113 -131 447 -462 567
-561 76 -64 284 -214 295 -214 3 0 30 -16 62 -36 151 -98 458 -229 683 -294
80 -23 104 -29 175 -45 267 -62 434 -80 755 -80 244 0 396 10 535 35 211 38
346 71 495 120 192 64 260 92 446 186 301 153 585 370 774 594 30 36 57 67 60
70 12 12 100 131 100 135 0 3 15 26 34 52 87 124 205 396 244 563 44 185 46
204 46 435 0 233 -5 272 -49 445 -58 226 -153 427 -299 635 -38 55 -72 102
-75 105 -4 3 -31 34 -61 70 -72 84 -471 484 -535 535 -27 22 -59 48 -70 58
-29 27 -212 157 -221 157 -4 0 -15 6 -23 14 -9 8 -33 23 -53 35 -21 12 -55 31
-75 42 -21 12 -72 40 -113 62 -41 21 -87 48 -102 58 -14 11 -29 19 -32 19 -4
0 -48 25 -98 55 -50 30 -93 55 -95 55 -2 0 -53 32 -114 70 -60 39 -112 70
-114 70 -2 0 -42 24 -87 53 -46 30 -103 65 -128 79 -25 14 -76 43 -115 65 -59
34 -113 60 -230 113 -79 36 -252 71 -335 69 -25 -1 -74 -5 -109 -10z m269
-201 c124 -38 291 -117 413 -195 37 -24 69 -43 72 -43 3 0 37 -21 77 -47 174
-111 584 -352 728 -428 97 -51 307 -193 397 -269 366 -306 590 -665 674 -1081
19 -91 22 -144 23 -305 0 -111 -5 -215 -11 -240 -6 -25 -17 -72 -23 -105 -34
-171 -145 -423 -259 -590 -243 -353 -636 -659 -1071 -835 -30 -12 -64 -26 -75
-30 -116 -49 -446 -136 -600 -159 -211 -31 -269 -35 -500 -35 -288 0 -381 9
-655 64 -219 45 -370 91 -527 161 -24 10 -45 19 -49 19 -15 0 -231 112 -322
167 -228 138 -492 366 -614 530 -23 32 -45 60 -48 63 -3 3 -27 37 -53 77 -122
187 -208 389 -247 578 -6 33 -17 83 -23 110 -15 69 -14 384 1 470 71 385 223
679 502 969 158 165 389 340 580 441 79 41 124 66 135 75 6 4 42 25 80 45 39
21 115 66 170 100 602 373 723 438 920 493 22 7 54 14 70 16 46 6 196 -4 235
-16z"/>
<path d="M4225 6691 c-119 -15 -243 -110 -297 -228 -29 -63 -32 -76 -32 -173
0 -98 2 -109 32 -172 43 -89 111 -158 195 -197 61 -29 74 -31 172 -31 104 0
108 1 177 37 184 98 271 304 208 489 -67 194 -247 303 -455 275z m9 -135 c54
-22 81 -70 81 -141 -1 -74 -20 -106 -81 -134 -57 -27 -88 -26 -140 4 -168 98
-39 346 140 271z"/>
<path d="M6030 6691 c-97 -15 -204 -83 -264 -169 -68 -98 -87 -254 -46 -365
42 -113 108 -183 227 -241 45 -23 65 -26 153 -26 89 0 107 3 164 29 156 70
236 199 236 376 0 119 -25 186 -98 267 -41 46 -119 98 -172 115 -48 16 -145
22 -200 14z m21 -143 c42 -23 79 -85 79 -131 0 -105 -114 -185 -207 -145 -41
17 -73 48 -89 87 -19 46 -18 73 7 125 37 79 133 108 210 64z"/>
<path d="M4688 5673 c-61 -38 -60 -96 4 -240 20 -47 107 -166 147 -201 109
-99 195 -147 304 -172 52 -12 66 -12 125 4 153 41 302 153 394 296 49 78 88
180 88 234 0 39 -4 48 -33 70 l-34 26 -484 0 c-436 -1 -487 -2 -511 -17z m596
-258 c11 -8 30 -15 42 -15 13 0 26 -4 29 -10 3 -5 15 -10 26 -10 10 0 19 -4
19 -10 0 -5 6 -10 13 -10 6 0 23 -9 37 -20 l25 -19 -42 -39 c-23 -22 -55 -46
-72 -53 -17 -8 -31 -17 -31 -21 0 -5 -11 -8 -24 -8 -13 0 -29 -7 -36 -15 -17
-20 -118 -20 -144 0 -11 8 -28 15 -38 15 -10 0 -18 5 -18 10 0 6 -9 10 -20 10
-11 0 -20 5 -20 10 0 6 -5 10 -11 10 -5 0 -23 12 -39 28 -28 27 -29 27 -11 49
23 28 115 78 159 88 17 3 32 11 32 16 0 15 103 10 124 -6z"/>
<path d="M4960 3355 c-17 -21 -8 -50 18 -53 20 -3 22 -9 22 -71 0 -72 10 -91
47 -91 31 0 43 28 43 100 0 34 4 59 9 56 31 -19 56 35 29 62 -18 18 -152 16
-168 -3z"/>
<path d="M5182 3358 c-8 -8 -12 -45 -12 -110 0 -97 0 -98 27 -104 30 -8 53 15
53 53 0 16 6 23 19 23 15 0 21 -8 23 -31 4 -39 30 -59 56 -43 14 9 17 27 17
109 0 82 -3 100 -17 109 -26 16 -52 -4 -56 -43 -3 -25 -8 -31 -27 -31 -20 0
-24 6 -27 38 -2 28 -8 38 -23 40 -11 1 -26 -3 -33 -10z"/>
<path d="M5422 3354 c-20 -14 -22 -24 -22 -99 0 -102 9 -115 83 -115 63 0 80
10 75 41 -2 19 -10 25 -35 27 -39 4 -45 22 -7 22 21 0 25 4 22 22 -2 16 -12
25 -33 29 -32 6 -21 15 25 21 31 4 39 36 14 55 -24 18 -95 16 -122 -3z"/>
<path d="M2730 3341 c-76 -24 -125 -71 -149 -140 -8 -24 -11 -215 -11 -646 l0
-611 28 -55 c18 -35 42 -64 70 -84 l44 -30 406 -3 c274 -2 427 1 467 8 85 16
194 71 259 131 133 121 178 338 102 492 -31 63 -113 148 -167 172 -21 10 -39
21 -39 24 1 3 21 21 45 38 54 40 89 98 111 183 14 55 15 77 5 138 -26 172
-150 305 -341 368 -48 15 -102 18 -430 20 -206 2 -386 0 -400 -5z m745 -384
c61 -61 54 -137 -18 -191 -26 -20 -43 -21 -240 -24 -192 -3 -213 -2 -224 14
-17 24 -18 205 -1 222 9 9 74 12 231 12 l219 0 33 -33z m46 -600 c19 -12 43
-40 53 -61 17 -36 18 -43 5 -80 -9 -25 -27 -49 -48 -63 -33 -22 -40 -23 -280
-23 -179 0 -250 3 -259 12 -16 16 -16 210 0 226 9 9 79 12 254 12 234 0 242
-1 275 -23z"/>
<path d="M4511 3327 c-24 -12 -57 -42 -75 -66 l-31 -43 0 -391 c0 -386 0 -393
24 -462 168 -499 694 -734 1185 -528 220 91 389 283 472 533 l28 85 4 350 c4
378 2 394 -48 463 -69 95 -201 111 -284 34 -63 -59 -66 -77 -66 -402 0 -328
-8 -390 -61 -498 -40 -82 -127 -171 -206 -211 -213 -107 -482 -14 -588 203
-60 124 -65 158 -65 481 0 159 -4 306 -10 325 -13 49 -66 109 -114 131 -55 25
-114 24 -165 -4z"/>
<path d="M6690 3339 c-43 -18 -90 -59 -110 -99 -19 -37 -20 -63 -22 -672 -3
-628 -2 -633 19 -673 46 -87 107 -128 189 -128 71 0 134 37 171 101 l28 47 5
338 5 338 340 -368 c187 -202 353 -380 370 -395 42 -40 86 -58 139 -58 84 0
150 45 187 125 17 37 19 80 19 663 0 500 -3 629 -13 655 -48 113 -169 165
-273 118 -48 -22 -100 -82 -115 -131 -6 -22 -9 -159 -7 -363 2 -224 0 -327 -8
-327 -5 0 -55 50 -110 112 -54 62 -124 140 -154 173 -30 34 -111 124 -180 200
-192 214 -291 315 -332 336 -40 20 -107 24 -148 8z"/>
<path d="M3750 1620 c-18 -18 -20 -33 -20 -188 0 -184 5 -204 54 -204 39 0 60
25 61 71 l0 40 65 7 c55 6 70 12 97 39 17 17 36 50 43 73 9 36 8 48 -8 85 -34
74 -80 97 -198 97 -61 0 -78 -4 -94 -20z m184 -112 c18 -29 -4 -53 -53 -56
l-41 -3 0 41 0 41 41 -3 c27 -2 46 -9 53 -20z"/>
<path d="M4219 1621 c-23 -18 -24 -25 -27 -171 -4 -163 -1 -190 24 -214 22
-22 41 -20 69 9 17 16 25 35 25 60 0 30 3 35 23 35 16 0 29 -12 46 -46 16 -29
37 -52 57 -62 30 -14 35 -14 58 2 33 21 33 35 -4 93 l-29 48 26 27 c37 39 43
114 14 162 -32 52 -91 76 -183 76 -60 0 -81 -4 -99 -19z m175 -107 c35 -34 11
-64 -51 -64 -42 0 -43 1 -43 33 0 19 3 37 7 40 12 13 72 7 87 -9z"/>
<path d="M4779 1617 c-29 -16 -54 -40 -74 -72 -26 -42 -30 -58 -30 -121 0 -64
3 -77 30 -115 45 -64 104 -91 186 -87 88 5 141 38 175 111 38 82 28 163 -28
232 -63 76 -172 98 -259 52z m161 -114 c42 -39 48 -79 18 -123 -42 -62 -108
-65 -151 -7 -32 41 -26 95 12 129 41 36 81 37 121 1z"/>
<path d="M5410 1620 c-18 -18 -20 -33 -20 -139 0 -95 -3 -123 -16 -135 -14
-14 -18 -14 -44 -1 -16 8 -32 19 -35 25 -11 17 -41 11 -63 -13 -27 -29 -28
-47 -1 -81 64 -82 186 -74 253 17 18 24 21 46 24 160 4 124 3 134 -18 160 -25
32 -52 35 -80 7z"/>
<path d="M5699 1619 c-19 -19 -20 -30 -17 -191 4 -213 0 -208 150 -208 92 0
101 2 123 25 55 55 22 93 -85 97 -59 2 -75 6 -75 18 0 11 15 16 65 18 73 3 90
13 90 51 0 41 -18 51 -86 51 -47 0 -63 4 -68 16 -11 28 4 34 79 34 81 0 105
13 105 55 0 43 -33 55 -152 55 -96 0 -110 -2 -129 -21z"/>
<path d="M6235 1623 c-76 -40 -118 -108 -119 -194 -2 -178 238 -282 338 -146
23 32 16 52 -27 77 -24 13 -29 13 -56 -3 -45 -27 -85 -22 -115 14 -43 51 -26
124 34 149 26 11 36 10 70 -5 45 -20 80 -12 99 23 14 26 -19 69 -65 88 -44 18
-122 17 -159 -3z"/>
<path d="M6605 1615 c-14 -13 -25 -29 -25 -35 0 -25 49 -60 85 -60 l35 0 0
-128 c0 -138 6 -156 52 -167 19 -5 32 -1 47 14 19 19 21 33 21 150 l0 128 36
6 c69 11 94 58 52 97 -20 18 -35 20 -150 20 -124 0 -130 -1 -153 -25z"/>
<path d="M2745 1495 c-30 -29 -32 -64 -5 -93 21 -22 24 -22 349 -22 305 0 329
1 344 18 24 26 21 77 -5 102 -21 19 -34 20 -340 20 l-319 0 -24 -25z"/>
<path d="M7150 1500 c-26 -26 -26 -81 -2 -103 17 -15 55 -17 345 -17 325 0
326 0 341 22 23 32 20 65 -9 93 l-24 25 -316 0 c-302 0 -316 -1 -335 -20z"/>
</g>
</svg>
